<svg width="74" height="50" viewBox="0 0 74 50" fill="none" xmlns="http://www.w3.org/2000/svg">
<path d="M26.0655 26.467C28.8322 25.6271 33.832 23.1469 31.6977 19.9454C29.0298 15.9436 26.8065 26.467 32.7352 25.7259C38.6639 24.9848 39.2568 19.0561 37.0335 18.9079C34.8103 18.7597 34.3656 24.5402 40.4425 25.133C46.5194 25.7259 46.6676 16.6846 43.5551 17.2775C40.4425 17.8704 40.1461 26.1705 46.8158 23.0579C53.4856 19.9454 56.3017 10.0149 45.7783 10.6077C35.2549 11.2006 26.3619 11.0524 23.8422 12.6828C21.3225 14.3131 20.5814 17.574 21.619 25.7259C22.6565 33.8778 22.5083 33.2849 30.9566 32.3956C39.405 31.5063 39.7014 30.7652 40.8872 34.3224C41.8357 37.1682 42.4681 38.5713 42.6658 38.9171C42.6658 35.854 43.8218 29.8166 48.4462 30.1723" stroke="#485361" stroke-width="1.5" stroke-linecap="round" stroke-linejoin="round"/>
</svg>
